HIERARCHY
ROOT Hips
{
	OFFSET 0.000000 0.000000 0.000000 
	CHANNELS 6 Xposition Yposition Zposition Zrotation Yrotation Xrotation
	JOINT LeftUpLeg
	{
		OFFSET 1.363060 -1.794630 0.839290 
		CHANNELS 3 Zrotation Yrotation Xrotation
		JOINT LeftLeg
		{
			OFFSET 2.448110 -6.726130 0.000000 
			CHANNELS 3 Zrotation Yrotation Xrotation
			JOINT LeftFoot
			{
				OFFSET 2.562200 -7.039590 0.000000 
				CHANNELS 3 Zrotation Yrotation Xrotation
				JOINT LeftToeBase
				{
					OFFSET 0.157640 -0.433110 2.322550 
					CHANNELS 3 Zrotation Yrotation Xrotation
					End Site
					{
						OFFSET 0.000000 0.000000 0.000000 
					}
				}
			}
		}
	}
	JOINT RightUpLeg
	{
		OFFSET -1.305520 -1.794630 0.839290 
		CHANNELS 3 Zrotation Yrotation Xrotation
		JOINT RightLeg
		{
			OFFSET -2.542530 -6.985550 0.000000 
			CHANNELS 3 Zrotation Yrotation Xrotation
			JOINT RightFoot
			{
				OFFSET -2.568260 -7.056230 0.000000 
				CHANNELS 3 Zrotation Yrotation Xrotation
				JOINT RightToeBase
				{
					OFFSET -0.164730 -0.452590 2.363150 
					CHANNELS 3 Zrotation Yrotation Xrotation
					End Site
					{
						OFFSET 0.000000 0.000000 0.000000 
					}
				}
			}
		}
	}
	JOINT Spine
	{
		OFFSET 0.028270 2.035590 -0.193380 
		CHANNELS 3 Zrotation Yrotation Xrotation
		JOINT Spine1
		{
			OFFSET 0.056720 2.048850 -0.042750 
			CHANNELS 3 Zrotation Yrotation Xrotation
			JOINT Neck1
			{
				OFFSET -0.054170 1.746240 0.172020 
				CHANNELS 3 Zrotation Yrotation Xrotation
				JOINT Head
				{
					OFFSET 0.104070 1.761360 -0.123970 
					CHANNELS 3 Zrotation Yrotation Xrotation
					End Site
					{
						OFFSET 0.000000 0.000000 0.000000 
					}
				}
			}
			JOINT LeftArm
			{
				OFFSET 3.362410 1.200890 -0.311210 
				CHANNELS 3 Zrotation Yrotation Xrotation
				JOINT LeftForeArm
				{
					OFFSET 4.983000 -0.000000 -0.000000 
					CHANNELS 3 Zrotation Yrotation Xrotation
					JOINT LeftHand
					{
						OFFSET 3.483560 -0.000000 -0.000000 
						CHANNELS 3 Zrotation Yrotation Xrotation
						JOINT LeftHandIndex1
						{
							OFFSET 0.715260 -0.000000 -0.000000 
							CHANNELS 3 Zrotation Yrotation Xrotation
							End Site
							{
								OFFSET 0.000000 0.000000 0.000000 
							}
						}
					}
				}
			}
			JOINT RightArm
			{
				OFFSET -3.136600 1.374050 -0.404650 
				CHANNELS 3 Zrotation Yrotation Xrotation
				JOINT RightForeArm
				{
					OFFSET -5.241900 -0.000000 -0.000000 
					CHANNELS 3 Zrotation Yrotation Xrotation
					JOINT RightHand
					{
						OFFSET -3.444170 -0.000000 -0.000000 
						CHANNELS 3 Zrotation Yrotation Xrotation
						JOINT RightHandIndex1
						{
							OFFSET -0.622530 -0.000000 -0.000000 
							CHANNELS 3 Zrotation Yrotation Xrotation
							End Site
							{
								OFFSET 0.000000 0.000000 0.000000 
							}
						}
					}
				}
			}
		}
	}
}
MOTION
Frames: 18
Frame Time: 0.041667
-4.188312 17.874870 2.968393 -1.063009 14.163689 5.407018 -15.392838 -5.409173 -23.047800 0.177876 5.615292 15.903498 0.772635 -4.688127 9.254231 0.155900 -2.543800 -7.011200 21.850292 -7.285981 -4.041326 -3.681896 -12.121470 34.513052 1.345508 -8.162724 -5.546380 -2.442300 9.732200 -28.113900 0.978446 9.612371 -0.694709 0.246657 4.848843 2.883237 -0.842412 27.225290 15.126353 2.071200 12.218800 9.775800 -93.048950 -4.859776 6.445580 10.040811 -15.104243 -0.604103 0.506642 -1.679375 23.142222 -7.125000 0.000000 0.000000 93.692348 15.053841 34.649568 -22.335023 34.749015 -7.559513 0.670290 0.162818 -1.526769 7.125000 0.000000 0.000000 
-4.137379 17.878536 3.100780 -0.484630 14.284225 5.116031 -16.210333 -5.285839 -22.197312 0.220832 5.722689 16.241165 0.768812 -4.949522 8.722566 0.286900 -3.444700 -9.519500 20.864398 -7.626761 -4.964983 -4.263724 -12.908280 37.276838 1.260025 -7.800768 -4.227763 -2.438600 9.725400 -28.092100 0.798899 9.377475 -0.664402 0.095350 4.717183 2.647898 -0.635597 27.248292 15.359301 2.169100 12.224000 9.850300 -92.694951 -4.654710 6.986732 10.253084 -15.473279 -0.647704 0.558681 -1.697028 23.006733 -7.125000 0.000000 0.000000 93.642396 14.964425 33.310112 -21.512587 33.785024 -7.037611 0.674148 0.162179 -1.144335 7.125000 0.000000 0.000000 
-4.101112 17.882004 3.233167 -0.077158 13.836154 5.108989 -16.755223 -4.771849 -22.042262 0.316702 6.003799 17.058379 0.802552 -5.746859 7.822149 0.398700 -4.053800 -11.228100 20.042779 -7.206897 -6.116819 -4.904683 -13.660196 40.088044 1.173985 -7.481844 -2.266038 -2.199900 9.270600 -26.645500 0.702583 9.384280 -0.611546 0.276207 4.692026 2.682773 0.579328 27.170386 16.278073 2.746100 12.163000 10.071900 -92.588098 -4.857584 6.681882 10.132806 -15.248213 -0.575813 0.512391 -1.715694 22.937836 -7.125000 0.000000 0.000000 93.392449 14.997122 31.883978 -20.739763 32.861979 -6.568248 0.670096 0.181067 -0.988017 7.125000 0.000000 0.000000 
-4.072970 17.887553 3.365950 -0.198115 13.103492 4.984368 -16.613608 -4.160176 -21.863056 0.391181 6.227220 17.689298 0.826174 -6.233086 7.027719 0.371300 -3.913600 -10.833800 19.758707 -6.578824 -7.234875 -5.562525 -14.338834 42.775493 1.111181 -7.395980 0.268228 -1.739000 8.299700 -23.628300 0.740753 9.490283 -0.528640 0.546434 4.715150 2.853699 2.342554 27.140760 17.747362 3.627300 12.104400 10.456300 -92.587479 -5.271714 6.565677 9.970989 -14.928352 -0.462239 0.451381 -1.754743 22.697211 -7.125000 0.000000 0.000000 93.062929 14.995766 30.256578 -20.006250 31.970473 -6.136804 0.662712 0.196281 -0.367430 7.125000 0.000000 0.000000 
-4.040666 17.895778 3.496255 -0.466423 12.604765 4.725588 -16.361291 -3.600976 -21.622774 0.465090 6.440784 18.292736 0.835043 -6.449639 6.288504 0.330800 -3.696500 -10.224300 19.651376 -6.146214 -8.434250 -6.258492 -14.983357 45.452077 1.090233 -7.730756 3.218992 -1.310300 7.251000 -20.461000 0.790342 9.428581 -0.463559 0.670932 4.666863 3.000263 3.395234 27.262589 18.816715 4.435700 11.997800 10.930500 -92.408251 -5.606253 6.222618 9.803424 -14.650239 -0.429749 0.439155 -1.732595 22.642065 -7.125000 0.000000 0.000000 92.808141 14.932614 28.843983 -19.217512 30.971766 -5.667867 0.672002 0.201039 0.215250 7.125000 0.000000 0.000000 
-3.994885 17.898751 3.622201 -0.330908 12.475077 4.505672 -16.630173 -3.250280 -21.213669 0.527809 6.596183 18.755842 0.839234 -6.638086 5.546212 0.302500 -3.536500 -9.776100 19.051637 -6.129875 -9.752618 -6.971744 -15.592215 48.088082 0.985145 -8.067983 6.643863 -1.104100 6.676400 -18.760300 0.710053 9.273385 -0.454752 0.564951 4.602592 2.786828 1.490998 27.658770 17.549225 3.385600 12.263600 10.499600 -92.073555 -5.600787 5.720213 9.734164 -14.565058 -0.466506 0.450565 -1.682210 22.981964 -7.125000 0.000000 0.000000 92.689589 14.627696 27.216841 -18.482355 29.979064 -5.231364 0.676656 0.197132 0.454867 7.125000 0.000000 0.000000 
-3.946033 17.900138 3.748345 0.105058 12.361201 4.317303 -17.206264 -3.088196 -20.583124 0.566856 6.677400 19.010999 0.840633 -6.775240 4.913678 0.256800 -3.260100 -9.003800 18.041279 -6.224288 -11.029699 -7.690024 -16.157597 50.685867 0.750506 -8.076373 9.950857 -0.776100 5.624900 -15.700000 0.540607 9.205693 -0.515574 0.381595 4.570627 2.384053 0.643825 27.636164 16.540406 2.847100 12.339500 10.030600 -91.751139 -5.511685 5.019531 9.649881 -14.425813 -0.451610 0.428343 -1.665703 23.779743 -7.125000 0.000000 0.000000 92.668615 14.006144 24.892383 -17.987641 29.286461 -4.939350 0.670571 0.204116 0.988694 7.125000 0.000000 0.000000 
-3.906198 17.904201 3.876272 0.469506 12.301357 4.154188 -17.698456 -2.928290 -19.905719 0.581841 6.696641 19.080743 0.840258 -6.837833 4.428280 0.255900 -3.255000 -8.989600 17.180985 -6.248337 -12.332837 -8.425626 -16.680948 53.249934 0.567981 -8.308998 12.542891 -0.391800 4.019000 -11.130100 0.467819 9.119317 -0.514162 0.462217 4.517613 2.200886 0.256631 27.629367 16.191694 2.630500 12.353900 9.821300 -91.492462 -5.639780 5.160356 9.530388 -14.203172 -0.412406 0.417222 -1.660936 23.918113 -7.125000 0.000000 0.000000 92.430278 13.502542 22.565492 -17.513180 28.612892 -4.658471 0.671087 0.218635 1.652197 7.125000 0.000000 0.000000 
-3.859625 17.910047 4.002020 0.685132 12.332346 4.036061 -18.057674 -2.807139 -19.243610 0.585871 6.687809 19.068266 0.837589 -6.837601 3.993774 0.266100 -3.318200 -9.165800 16.511805 -6.360458 -13.715134 -9.158008 -17.153755 55.731739 0.366168 -8.515370 14.890042 -0.236600 3.130800 -8.643100 0.430420 8.941318 -0.408112 0.503783 4.417847 2.397886 -0.178186 27.831086 16.405047 2.517300 12.393600 9.959000 -91.165848 -6.007679 6.844100 9.567444 -14.245335 -0.414664 0.459259 -1.662767 22.637810 -7.125000 0.000000 0.000000 92.128917 13.364459 20.432259 -16.915341 27.773696 -4.321541 0.678004 0.221370 2.300038 7.125000 0.000000 0.000000 
-3.807899 17.916191 4.123804 1.142158 12.178427 4.031658 -18.678595 -2.652026 -18.642623 0.585238 6.662291 19.010549 0.830210 -6.796826 3.675547 0.242900 -3.171500 -8.756600 15.515193 -6.406879 -15.150789 -9.879681 -17.579972 58.151907 0.109092 -8.479545 17.064654 -0.132400 2.345300 -6.460900 0.277184 8.871720 -0.319133 0.382598 4.368585 2.564862 -0.249929 27.967802 16.825919 2.604400 12.382000 10.188900 -90.835171 -6.604813 7.648513 9.575500 -14.245930 -0.400421 0.464493 -1.669312 22.532908 -7.125000 0.000000 0.000000 91.971899 13.131952 18.204683 -16.451042 27.113139 -4.069595 0.674816 0.232268 2.850703 7.125000 0.000000 0.000000 
-3.762614 17.918668 4.246777 1.581054 12.058980 3.965028 -19.311200 -2.323657 -18.031312 0.575668 6.610230 18.873267 0.832667 -6.856258 3.263072 0.306700 -3.560600 -9.843600 14.582581 -6.493025 -16.435647 -10.587395 -17.960507 60.433717 0.028204 -8.912207 18.316337 -0.028500 1.089000 -2.993800 0.168853 8.850495 -0.210073 0.409449 4.341323 2.715151 -0.780974 28.032426 16.782378 2.477300 12.343300 10.277400 -90.682201 -7.232047 7.257576 9.524030 -14.169915 -0.390226 0.429518 -1.662268 23.743271 -7.125000 0.000000 0.000000 91.591452 12.899572 16.289403 -16.043296 26.509133 -3.852072 0.664082 0.266781 2.825169 7.125000 0.000000 0.000000 
-3.712672 17.917875 4.370740 2.025374 12.110383 3.941788 -20.000803 -2.020467 -17.397672 0.555771 6.526617 18.642720 0.843142 -6.987889 2.698946 0.426300 -4.190400 -11.613100 13.665064 -6.750370 -17.738495 -11.270226 -18.293233 62.574791 0.104908 -9.604282 18.653194 -0.013700 0.755800 -2.077100 0.047416 8.695408 -0.143837 0.398123 4.241462 2.872079 -0.223199 27.897666 16.952646 2.705800 12.289800 10.192600 -90.358488 -7.471564 7.828602 9.652729 -14.423963 -0.450124 0.441118 -1.643876 23.859675 -7.125000 0.000000 0.000000 91.086092 12.790307 14.685028 -15.453354 25.625487 -3.546389 0.659922 0.304701 2.684093 7.125000 0.000000 0.000000 
-3.661243 17.920749 4.494704 2.602036 12.272201 3.997060 -20.808882 -1.812582 -16.758922 0.538842 6.440882 18.419255 0.852004 -7.137999 2.372622 0.431300 -4.214600 -11.681300 12.641253 -7.057564 -19.162758 -11.920897 -18.582450 64.587323 0.289163 -10.366529 18.285096 -0.071500 1.725400 -4.747200 -0.131452 8.499746 -0.184216 0.238036 4.144653 2.760037 -0.728374 28.049397 17.194044 2.483100 12.342000 10.362600 -89.839301 -7.634798 8.948860 9.741005 -14.586169 -0.492055 0.469042 -1.626054 23.508214 -7.125000 0.000000 0.000000 90.728836 12.453542 12.751596 -14.858266 24.693596 -3.232922 0.666386 0.330897 3.076076 7.125000 0.000000 0.000000 
-3.617048 17.929667 4.614011 3.017048 12.599403 4.081041 -21.436104 -1.595637 -16.221083 0.522404 6.360703 18.206325 0.871655 -7.424557 2.178523 0.430800 -4.211900 -11.673700 11.869105 -7.474642 -20.616869 -12.526070 -18.823621 66.431199 0.606494 -11.252799 17.107771 -0.123500 2.265200 -6.239300 -0.210531 8.311254 -0.198001 0.238585 4.040724 2.710712 -0.691414 28.081794 17.637486 2.568800 12.298500 10.538900 -89.628906 -8.221611 9.570150 9.683857 -14.468871 -0.463626 0.455584 -1.630183 23.904996 -7.125000 0.000000 0.000000 90.283490 12.030023 10.538926 -14.424373 23.998336 -2.991864 0.686538 0.349952 3.541241 7.125000 0.000000 0.000000 
-3.580880 17.940865 4.731137 2.919574 12.897962 4.021126 -21.459152 -1.429374 -15.651270 0.500160 6.281925 17.981654 0.891628 -7.617605 1.840050 0.494700 -4.509600 -12.514800 11.747977 -7.787782 -21.926334 -13.072309 -19.018936 68.070797 1.015665 -12.240425 15.355787 -0.106900 2.108400 -5.805400 -0.147737 8.196396 -0.141722 0.331573 3.971358 2.820596 -0.466708 28.112508 17.976284 2.758300 12.250700 10.627700 -89.663098 -8.877656 9.915560 9.746501 -14.574578 -0.466111 0.445802 -1.646334 24.768891 -7.125000 0.000000 0.000000 89.607252 11.821459 8.472017 -13.906277 23.173978 -2.719081 0.714085 0.357148 3.785312 7.125000 0.000000 0.000000 
-3.558683 17.950179 4.856885 2.595582 13.133136 3.586920 -21.099386 -1.297672 -14.751464 0.485052 6.224892 17.821180 0.906882 -7.706420 1.459375 0.560600 -4.795800 -13.327100 12.046232 -7.975404 -22.781664 -13.536925 -19.181520 69.459909 1.421450 -13.181348 13.507138 -0.105600 2.095900 -5.770700 -0.042013 8.130756 -0.031564 0.422699 3.944113 2.809981 -1.939702 28.489660 17.788364 2.225500 12.344800 10.830800 -89.461804 -9.371909 10.938599 9.922464 -14.904883 -0.544084 0.488418 -1.632238 24.762683 -7.125000 0.000000 0.000000 88.966050 11.735129 6.156118 -13.308349 22.219278 -2.438641 0.725600 0.349441 4.436726 7.125000 0.000000 0.000000 
-3.536288 17.952657 4.982137 2.608068 13.485524 3.302531 -21.089122 -1.287089 -13.904107 0.476600 6.180080 17.696973 0.929428 -7.952253 1.199273 0.614500 -5.017000 -13.957000 11.961319 -8.404612 -23.743064 -13.937516 -19.309587 70.685488 1.674759 -13.693248 12.187247 -0.086300 1.894700 -5.214600 -0.013539 7.980466 0.029465 0.562069 3.848580 2.761895 -1.023716 28.466286 18.256422 2.626300 12.333100 10.822400 -89.104673 -9.693468 12.970474 10.212473 -15.426304 -0.642716 0.461707 -1.623064 23.608512 -7.125000 0.000000 0.000000 88.402782 11.480471 3.533864 -12.856791 21.523523 -2.251592 0.716947 0.345883 5.657186 7.125000 0.000000 0.000000 
-3.501012 17.956918 5.103326 2.817647 13.833073 3.422183 -21.359239 -1.347604 -13.412550 0.468169 6.131337 17.570248 0.946668 -8.186896 1.058989 0.583400 -4.890600 -13.596700 11.541475 -8.862710 -25.112914 -14.280341 -19.405322 71.754281 1.823000 -13.907263 11.226858 -0.056100 1.528900 -4.205300 -0.039822 7.939531 0.013273 0.636593 3.824439 2.757655 -1.326539 28.411258 18.643305 2.496800 12.274500 11.057200 -88.959413 -9.859372 14.700169 10.613657 -16.141743 -0.775304 0.508463 -1.629770 22.754760 -7.125000 0.000000 0.000000 87.758620 10.916619 1.280798 -12.532950 20.999256 -2.110825 0.711425 0.359424 6.366477 7.125000 0.000000 0.000000 
